<svg xmlns="http://www.w3.org/2000/svg" width="188.892" height="53" viewBox="0 0 188.892 53"><defs><linearGradient id="a" x1="58.08%" x2="61.99%" y1="90.669%" y2="0%"><stop offset="0%" stop-color="#175FA2"/><stop offset="100%" stop-color="#4AA2F5"/></linearGradient><linearGradient id="b" x1="44.925%" x2="39.386%" y1="92.442%" y2="0%"><stop offset="0%" stop-color="#175FA2"/><stop offset="100%" stop-color="#4AA2F5"/></linearGradient></defs><g fill="none" fill-rule="nonzero"><path fill="url(#a)" d="M0 25.333V14.519c.042-.498.24-.622.658-.383 1.014.563 2.02 1.14 3.019 1.735l7.203 4.233c.689.405 1.372.824 2.07 1.212.337.185.36.422.07.587-1.116.641-2.148 1.516-3.48 1.687-.702.087-1.36-.214-1.974-.562-.982-.582-1.97-1.147-2.949-1.732-.332-.2-.416-.084-.413.253-.013 2.926-.02 5.862-.02 8.81 0 .563.28.41.559.25 1.213-.694 2.424-1.405 3.626-2.102 3.005-1.752 5.99-3.489 8.994-5.218.597-.34.887-.708.882-1.456-.04-4.832-.023-9.664-.025-14.497 0-.86-.023-.88-.765-.45a1503.422 1503.422 0 0 0-7.052 4.102c-.625.365-.622.4.02.776.878.517 1.76 1.031 2.652 1.526 1.189.664 1.825 1.645 1.8 3.036v1.931c0 .644-.184.78-.759.456-1.534-.863-3.052-1.754-4.572-2.637l-7.424-4.31c-.535-.311-.558-.438-.017-.764 1.99-1.192 3.99-2.361 5.99-3.534 2.694-1.574 5.39-3.144 8.087-4.711 1.485-.863 2.969-1.734 4.464-2.578.884-.497 1.757.087 1.766 1.186.02 1.732.033 3.467 0 5.195-.112 5.623-.087 11.245-.103 16.847a2.933 2.933 0 0 1-1.565 2.668l-9.734 5.69c-3.04 1.78-6.082 3.555-9.125 5.324-1.024.593-1.875.076-1.877-1.124C0 32.42 0 28.875 0 25.333Z"/><path fill="#175FA2" d="M25.417 45.418v-6.825c0-.253-.072-.562.198-.714.27-.152.486.076.703.2.52.298 1.035.607 1.557.902a2.967 2.967 0 0 1 1.637 2.859c-.027 1.186 0 2.375 0 3.564 0 .456.134.537.511.315l7.616-4.447c.488-.281.095-.38-.106-.498-1.98-1.169-3.963-2.335-5.948-3.497-2.349-1.374-4.706-2.735-7.05-4.118a.882.882 0 0 0-1 0 832.355 832.355 0 0 1-5.176 3.03c-2.608 1.521-5.214 3.048-7.833 4.549-.45.259-.413.396 0 .627 2.494 1.435 4.985 2.878 7.473 4.329.452.267.486.081.483-.312v-3.565a2.995 2.995 0 0 1 1.325-2.563c.713-.481 1.45-.925 2.21-1.33.382-.22.61-.082.644.363v14.196c-.045.525-.24.635-.703.368-1.54-.891-3.069-1.793-4.614-2.685-2.89-1.686-5.786-3.34-8.674-5.02a355.353 355.353 0 0 1-5.26-3.126 1.126 1.126 0 0 1-.567-.99c.003-.408.227-.783.584-.978 1.98-1.17 3.978-2.31 5.967-3.463l8.09-4.692c1.712-.993 3.426-1.983 5.142-2.969a2.736 2.736 0 0 1 2.854.034c1.746.978 3.47 1.993 5.202 2.991l7.167 4.144c2.265 1.31 4.536 2.617 6.796 3.935a1.152 1.152 0 0 1 0 1.996 1677.962 1677.962 0 0 1-8.908 5.198l-8.238 4.804c-.432.253-.859.509-1.289.768-.186.115-.37.28-.602.16-.232-.121-.195-.377-.195-.59v-6.95h.005-.001Z"/><path fill="url(#b)" d="M47.983 25.358V35.87c0 .526-.039 1.026-.535 1.318-.497.293-.99.116-1.465-.163-4.293-2.522-8.59-5.037-12.891-7.545-1.967-1.152-3.94-2.3-5.887-3.485a2.722 2.722 0 0 1-1.434-2.474c.017-4.31.017-8.62 0-12.931 0-2.918-.147-5.836-.094-8.754a6.889 6.889 0 0 1 .016-.711c.137-1.01.971-1.406 1.844-.891 3.491 2.03 6.982 4.057 10.473 6.083 2.593 1.51 5.182 3.024 7.77 4.54.217.126.504.222.488.562-.017.34-.302.349-.5.467a3545.202 3545.202 0 0 0-8.553 4.98c-1.142.664-2.286 1.32-3.431 1.969-.47.28-.653.168-.667-.391a24.437 24.437 0 0 1 .014-2.477 2.904 2.904 0 0 1 1.42-2.39c1.08-.648 2.159-1.298 3.255-1.92.419-.238.363-.401 0-.606L30.38 6.746c-.357-.21-.513-.127-.513.281v2.297c0 4.216 0 8.416-.02 12.624-.049.507.217.991.67 1.218 2.307 1.315 4.603 2.653 6.902 3.986a770.654 770.654 0 0 1 5.905 3.449c.391.23.558.239.558-.281-.01-2.879-.01-5.758 0-8.639 0-.48-.145-.562-.558-.314-.87.528-1.774 1.006-2.636 1.546-1.305.815-2.58.944-3.892 0-.488-.346-1.046-.585-1.55-.908-.506-.324-.517-.5.044-.827 3.197-1.865 6.395-3.727 9.594-5.588.837-.484 1.657-.97 2.51-1.437.522-.28.603-.239.606.377v5.257l-.017 5.571Z"/><path fill="#0E5DA6" d="M69.352 34.24c.792 0 1.446-.066 1.962-.198s.93-.312 1.242-.54c.312-.228.528-.498.648-.81.12-.312.18-.66.18-1.044 0-.816-.384-1.494-1.152-2.034-.768-.54-2.088-1.122-3.96-1.746a29.86 29.86 0 0 1-2.448-.99 9.023 9.023 0 0 1-2.196-1.404 6.716 6.716 0 0 1-1.584-2.052c-.408-.804-.612-1.782-.612-2.934 0-1.152.216-2.19.648-3.114a6.648 6.648 0 0 1 1.836-2.358c.792-.648 1.752-1.146 2.88-1.494 1.128-.348 2.4-.522 3.816-.522 1.68 0 3.132.18 4.356.54 1.224.36 2.232.756 3.024 1.188l-1.62 4.428c-.696-.36-1.47-.678-2.322-.954-.852-.276-1.878-.414-3.078-.414-1.344 0-2.31.186-2.898.558-.588.372-.882.942-.882 1.71 0 .456.108.84.324 1.152.216.312.522.594.918.846s.852.48 1.368.684c.516.204 1.086.414 1.71.63 1.296.48 2.424.954 3.384 1.422.96.468 1.758 1.014 2.394 1.638a5.933 5.933 0 0 1 1.422 2.196c.312.84.468 1.86.468 3.06 0 2.328-.816 4.134-2.448 5.418-1.632 1.284-4.092 1.926-7.38 1.926-1.104 0-2.1-.066-2.988-.198a19.285 19.285 0 0 1-2.358-.486 13.525 13.525 0 0 1-1.764-.612c-.492-.216-.906-.42-1.242-.612l1.584-4.464c.744.408 1.662.774 2.754 1.098 1.092.324 2.43.486 4.014.486ZM83.18 14.872l5.364-.864v5.58h6.444v4.464h-6.444v6.66c0 1.128.198 2.028.594 2.7.396.672 1.194 1.008 2.394 1.008.576 0 1.17-.054 1.782-.162a9.185 9.185 0 0 0 1.674-.45l.756 4.176c-.648.264-1.368.492-2.16.684-.792.192-1.764.288-2.916.288-1.464 0-2.676-.198-3.636-.594-.96-.396-1.728-.948-2.304-1.656-.576-.708-.978-1.566-1.206-2.574-.228-1.008-.342-2.124-.342-3.348V14.872Zm27.976 9.468c-.48-.12-1.044-.246-1.692-.378a10.456 10.456 0 0 0-2.088-.198c-.336 0-.738.03-1.206.09-.468.06-.822.126-1.062.198v14.472h-5.364V20.596c.96-.336 2.094-.654 3.402-.954 1.308-.3 2.766-.45 4.374-.45.288 0 .636.018 1.044.054.822.072 1.64.193 2.448.36a5.76 5.76 0 0 1 1.044.306l-.9 4.428Zm11.396 10.44c.528 0 1.032-.012 1.512-.036.48-.024.864-.06 1.152-.108v-4.068a9.903 9.903 0 0 0-.972-.144 10.631 10.631 0 0 0-2.61.018c-.444.06-.834.174-1.17.342-.336.168-.6.396-.792.684-.192.288-.288.648-.288 1.08 0 .84.282 1.422.846 1.746.564.324 1.338.486 2.322.486Zm-.432-15.696c1.584 0 2.904.18 3.96.54 1.056.36 1.902.876 2.538 1.548.636.672 1.086 1.488 1.35 2.448s.396 2.028.396 3.204v11.16c-.768.168-1.836.366-3.204.594-1.368.228-3.024.342-4.968.342-1.224 0-2.334-.108-3.33-.324-.996-.216-1.854-.57-2.574-1.062a4.86 4.86 0 0 1-1.656-1.926c-.384-.792-.576-1.764-.576-2.916 0-1.104.222-2.04.666-2.808a5.126 5.126 0 0 1 1.782-1.836c.744-.456 1.596-.786 2.556-.99.96-.204 1.956-.306 2.988-.306.696 0 1.314.03 1.854.09s.978.138 1.314.234v-.504c0-.912-.276-1.644-.828-2.196-.552-.552-1.512-.828-2.88-.828-.912 0-1.812.066-2.7.198-.888.132-1.656.318-2.304.558l-.684-4.32c.312-.096.702-.198 1.17-.306.468-.108.978-.204 1.53-.288a33.07 33.07 0 0 1 1.746-.216c.612-.06 1.23-.09 1.854-.09Zm12.244-4.212 5.364-.864v5.58h6.444v4.464h-6.444v6.66c0 1.128.198 2.028.594 2.7.396.672 1.194 1.008 2.394 1.008.576 0 1.17-.054 1.782-.162a9.185 9.185 0 0 0 1.674-.45l.756 4.176c-.648.264-1.368.492-2.16.684-.792.192-1.764.288-2.916.288-1.464 0-2.676-.198-3.636-.594-.96-.396-1.728-.948-2.304-1.656-.576-.708-.978-1.566-1.206-2.574-.228-1.008-.342-2.124-.342-3.348V14.872ZM168.54 29.02c0 1.488-.216 2.85-.648 4.086-.432 1.236-1.056 2.292-1.872 3.168a8.425 8.425 0 0 1-2.934 2.034c-1.14.48-2.418.72-3.834.72-1.392 0-2.658-.24-3.798-.72a8.425 8.425 0 0 1-2.934-2.034c-.816-.876-1.452-1.932-1.908-3.168-.456-1.236-.684-2.598-.684-4.086 0-1.488.234-2.844.702-4.068.468-1.224 1.116-2.268 1.944-3.132a8.73 8.73 0 0 1 2.952-2.016c1.14-.48 2.382-.72 3.726-.72 1.368 0 2.622.24 3.762.72a8.542 8.542 0 0 1 2.934 2.016c.816.864 1.452 1.908 1.908 3.132.456 1.224.684 2.58.684 4.068Zm-5.472 0c0-1.656-.33-2.958-.99-3.906-.66-.948-1.602-1.422-2.826-1.422s-2.172.474-2.844 1.422c-.672.948-1.008 2.25-1.008 3.906 0 1.656.336 2.97 1.008 3.942.672.972 1.62 1.458 2.844 1.458 1.224 0 2.166-.486 2.826-1.458.66-.972.99-2.286.99-3.942Zm16.284-3.672 3.744-5.76h5.544l-6.48 9.108a93.016 93.016 0 0 1 3.924 5.256c1.176 1.704 2.112 3.228 2.808 4.572h-5.76l-.72-1.35a32.926 32.926 0 0 0-.972-1.692 48.41 48.41 0 0 0-1.134-1.764 24.268 24.268 0 0 0-1.17-1.602c-.36.456-.726.96-1.098 1.512a35.58 35.58 0 0 0-1.062 1.674c-.336.564-.666 1.122-.99 1.674-.3.506-.581 1.023-.846 1.548h-5.472c.288-.6.684-1.308 1.188-2.124a79.914 79.914 0 0 1 1.638-2.538 70.33 70.33 0 0 1 1.854-2.628 68.76 68.76 0 0 1 1.908-2.466 506.816 506.816 0 0 1-3.24-4.59l-3.204-4.59h5.796l3.744 5.76Z"/></g></svg>